HIERARCHY
ROOT mixamorig:Hips
{
	OFFSET 0.000000 201.639420 0.000000
	CHANNELS 6 Xposition Yposition Zposition Xrotation Yrotation Zrotation
	JOINT mixamorig:Spine
	{
		OFFSET 0.006200 19.524994 -2.481800
		CHANNELS 3 Xrotation Yrotation Zrotation
		JOINT mixamorig:Spine1
		{
			OFFSET -0.000900 22.835007 -2.825400
			CHANNELS 3 Xrotation Yrotation Zrotation
			JOINT mixamorig:Spine2
			{
				OFFSET -0.020600 26.552490 -3.193300
				CHANNELS 3 Xrotation Yrotation Zrotation
				JOINT mixamorig:Neck
				{
					OFFSET -0.060000 30.701813 1.352200
					CHANNELS 3 Xrotation Yrotation Zrotation
					JOINT mixamorig:Head
					{
						OFFSET -0.087200 22.547607 3.670900
						CHANNELS 3 Xrotation Yrotation Zrotation
						JOINT mixamorig:HeadTop_End
						{
							OFFSET -0.830600 40.355194 7.893500
							CHANNELS 3 Xrotation Yrotation Zrotation
							End Site
							{
								OFFSET 0.000000 30.592346 0.000000
							}
						}
						JOINT mixamorig:RightEye
						{
							OFFSET -6.302100 18.118591 16.197100
							CHANNELS 3 Xrotation Yrotation Zrotation
							End Site
							{
								OFFSET 0.000000 30.592346 0.000000
							}
						}
						JOINT mixamorig:LeftEye
						{
							OFFSET 6.741500 18.382690 16.401899
							CHANNELS 3 Xrotation Yrotation Zrotation
							End Site
							{
								OFFSET 0.000000 30.592346 0.000000
							}
						}
					}
				}
				JOINT mixamorig:LeftShoulder
				{
					OFFSET 11.924900 18.230499 1.425400
					CHANNELS 3 Xrotation Yrotation Zrotation
					JOINT mixamorig:LeftArm
					{
						OFFSET 25.435989 -0.697632 -5.229300
						CHANNELS 3 Xrotation Yrotation Zrotation
						JOINT mixamorig:LeftForeArm
						{
							OFFSET 54.684776 0.000000 0.000000
							CHANNELS 3 Xrotation Yrotation Zrotation
							JOINT mixamorig:LeftHand
							{
								OFFSET 55.098175 0.000000 0.000000
								CHANNELS 3 Xrotation Yrotation Zrotation
								JOINT mixamorig:LeftHandMiddle1
								{
									OFFSET 23.369751 0.000000 0.000000
									CHANNELS 3 Xrotation Yrotation Zrotation
									JOINT mixamorig:LeftHandMiddle2
									{
										OFFSET 6.378677 0.000000 0.000000
										CHANNELS 3 Xrotation Yrotation Zrotation
										JOINT mixamorig:LeftHandMiddle3
										{
											OFFSET 6.148331 0.000000 0.000000
											CHANNELS 3 Xrotation Yrotation Zrotation
											JOINT mixamorig:LeftHandMiddle4
											{
												OFFSET 6.582504 0.000000 0.000000
												CHANNELS 3 Xrotation Yrotation Zrotation
												End Site
												{
													OFFSET -1.168900 6.395691 1.028606
												}
											}
										}
									}
								}
								JOINT mixamorig:LeftHandThumb1
								{
									OFFSET 7.235672 -3.848206 5.434273
									CHANNELS 3 Xrotation Yrotation Zrotation
									JOINT mixamorig:LeftHandThumb2
									{
										OFFSET 6.568451 -3.792297 3.792300
										CHANNELS 3 Xrotation Yrotation Zrotation
										JOINT mixamorig:LeftHandThumb3
										{
											OFFSET 6.063080 -3.500519 3.500518
											CHANNELS 3 Xrotation Yrotation Zrotation
											JOINT mixamorig:LeftHandThumb4
											{
												OFFSET 4.793182 -2.767334 2.767349
												CHANNELS 3 Xrotation Yrotation Zrotation
												End Site
												{
													OFFSET 0.101639 6.054260 1.275483
												}
											}
										}
									}
								}
								JOINT mixamorig:LeftHandIndex1
								{
									OFFSET 23.101074 -0.309540 4.992809
									CHANNELS 3 Xrotation Yrotation Zrotation
									JOINT mixamorig:LeftHandIndex2
									{
										OFFSET 6.226883 0.000000 0.000000
										CHANNELS 3 Xrotation Yrotation Zrotation
										JOINT mixamorig:LeftHandIndex3
										{
											OFFSET 6.094330 0.000000 0.000000
											CHANNELS 3 Xrotation Yrotation Zrotation
											JOINT mixamorig:LeftHandIndex4
											{
												OFFSET 5.482605 0.000000 0.000000
												CHANNELS 3 Xrotation Yrotation Zrotation
												End Site
												{
													OFFSET -1.427902 5.233032 0.797164
												}
											}
										}
									}
								}
								JOINT mixamorig:LeftHandRing1
								{
									OFFSET 22.299240 0.021149 -3.964172
									CHANNELS 3 Xrotation Yrotation Zrotation
									JOINT mixamorig:LeftHandRing2
									{
										OFFSET 6.321869 0.000000 0.000000
										CHANNELS 3 Xrotation Yrotation Zrotation
										JOINT mixamorig:LeftHandRing3
										{
											OFFSET 5.899796 0.000000 0.000000
											CHANNELS 3 Xrotation Yrotation Zrotation
											JOINT mixamorig:LeftHandRing4
											{
												OFFSET 6.517899 0.000000 0.000000
												CHANNELS 3 Xrotation Yrotation Zrotation
												End Site
												{
													OFFSET -1.637299 6.232208 0.980890
												}
											}
										}
									}
								}
								JOINT mixamorig:LeftHandPinky1
								{
									OFFSET 20.463791 -0.302338 -8.562233
									CHANNELS 3 Xrotation Yrotation Zrotation
									JOINT mixamorig:LeftHandPinky2
									{
										OFFSET 6.908646 0.000000 0.000000
										CHANNELS 3 Xrotation Yrotation Zrotation
										JOINT mixamorig:LeftHandPinky3
										{
											OFFSET 4.622849 0.000000 0.000000
											CHANNELS 3 Xrotation Yrotation Zrotation
											JOINT mixamorig:LeftHandPinky4
											{
												OFFSET 5.216080 0.000000 0.000000
												CHANNELS 3 Xrotation Yrotation Zrotation
												End Site
												{
													OFFSET -0.606308 5.116241 0.814926
												}
											}
										}
									}
								}
							}
						}
					}
				}
				JOINT mixamorig:RightShoulder
				{
					OFFSET -12.001300 18.284088 1.348900
					CHANNELS 3 Xrotation Yrotation Zrotation
					JOINT mixamorig:RightArm
					{
						OFFSET -25.308500 -0.751312 -5.164599
						CHANNELS 3 Xrotation Yrotation Zrotation
						JOINT mixamorig:RightForeArm
						{
							OFFSET -54.684429 0.000000 0.000000
							CHANNELS 3 Xrotation Yrotation Zrotation
							JOINT mixamorig:RightHand
							{
								OFFSET -55.150291 0.000000 0.000000
								CHANNELS 3 Xrotation Yrotation Zrotation
								JOINT mixamorig:RightHandMiddle1
								{
									OFFSET -23.317566 0.000000 0.000000
									CHANNELS 3 Xrotation Yrotation Zrotation
									JOINT mixamorig:RightHandMiddle2
									{
										OFFSET -6.378403 0.000000 0.000000
										CHANNELS 3 Xrotation Yrotation Zrotation
										JOINT mixamorig:RightHandMiddle3
										{
											OFFSET -6.148193 0.000000 0.000000
											CHANNELS 3 Xrotation Yrotation Zrotation
											JOINT mixamorig:RightHandMiddle4
											{
												OFFSET -6.583389 0.000000 0.000000
												CHANNELS 3 Xrotation Yrotation Zrotation
												End Site
												{
													OFFSET 1.171692 6.395905 1.029786
												}
											}
										}
									}
								}
								JOINT mixamorig:RightHandThumb1
								{
									OFFSET -7.190521 -3.860474 5.435846
									CHANNELS 3 Xrotation Yrotation Zrotation
									JOINT mixamorig:RightHandThumb2
									{
										OFFSET -6.567429 -3.791718 3.791708
										CHANNELS 3 Xrotation Yrotation Zrotation
										JOINT mixamorig:RightHandThumb3
										{
											OFFSET -6.062469 -3.500153 3.500166
											CHANNELS 3 Xrotation Yrotation Zrotation
											JOINT mixamorig:RightHandThumb4
											{
												OFFSET -4.792618 -2.767029 2.767022
												CHANNELS 3 Xrotation Yrotation Zrotation
												End Site
												{
													OFFSET -0.100327 6.053253 1.276754
												}
											}
										}
									}
								}
								JOINT mixamorig:RightHandIndex1
								{
									OFFSET -23.048981 -0.310791 4.992554
									CHANNELS 3 Xrotation Yrotation Zrotation
									JOINT mixamorig:RightHandIndex2
									{
										OFFSET -6.227539 0.000000 0.000000
										CHANNELS 3 Xrotation Yrotation Zrotation
										JOINT mixamorig:RightHandIndex3
										{
											OFFSET -6.095047 0.000000 0.000000
											CHANNELS 3 Xrotation Yrotation Zrotation
											JOINT mixamorig:RightHandIndex4
											{
												OFFSET -5.484772 0.000000 0.000000
												CHANNELS 3 Xrotation Yrotation Zrotation
												End Site
												{
													OFFSET 1.420593 5.237305 0.797056
												}
											}
										}
									}
								}
								JOINT mixamorig:RightHandRing1
								{
									OFFSET -22.246323 0.020569 -3.963762
									CHANNELS 3 Xrotation Yrotation Zrotation
									JOINT mixamorig:RightHandRing2
									{
										OFFSET -6.322128 0.000000 0.000000
										CHANNELS 3 Xrotation Yrotation Zrotation
										JOINT mixamorig:RightHandRing3
										{
											OFFSET -5.900024 0.000000 0.000000
											CHANNELS 3 Xrotation Yrotation Zrotation
											JOINT mixamorig:RightHandRing4
											{
												OFFSET -6.518356 0.000000 0.000000
												CHANNELS 3 Xrotation Yrotation Zrotation
												End Site
												{
													OFFSET 1.636398 6.232697 0.982186
												}
											}
										}
									}
								}
								JOINT mixamorig:RightHandPinky1
								{
									OFFSET -20.411011 -0.303314 -8.561701
									CHANNELS 3 Xrotation Yrotation Zrotation
									JOINT mixamorig:RightHandPinky2
									{
										OFFSET -6.907349 0.000000 0.000000
										CHANNELS 3 Xrotation Yrotation Zrotation
										JOINT mixamorig:RightHandPinky3
										{
											OFFSET -4.623840 0.000000 0.000000
											CHANNELS 3 Xrotation Yrotation Zrotation
											JOINT mixamorig:RightHandPinky4
											{
												OFFSET -5.218353 0.000000 0.000000
												CHANNELS 3 Xrotation Yrotation Zrotation
												End Site
												{
													OFFSET 0.602097 5.118835 0.816273
												}
											}
										}
									}
								}
							}
						}
					}
				}
			}
		}
	}
	JOINT mixamorig:LeftUpLeg
	{
		OFFSET 18.168400 -13.561905 -0.039000
		CHANNELS 3 Xrotation Yrotation Zrotation
		JOINT mixamorig:LeftLeg
		{
			OFFSET 0.577358 -80.825211 -3.695000
			CHANNELS 3 Xrotation Yrotation Zrotation
			JOINT mixamorig:LeftFoot
			{
				OFFSET -0.577356 -83.370262 -6.520700
				CHANNELS 3 Xrotation Yrotation Zrotation
				JOINT mixamorig:LeftToeBase
				{
					OFFSET 0.750401 -20.798306 25.135401
					CHANNELS 3 Xrotation Yrotation Zrotation
					JOINT mixamorig:LeftToe_End
					{
						OFFSET -0.000500 0.001200 19.917799
						CHANNELS 3 Xrotation Yrotation Zrotation
						End Site
						{
							OFFSET 0.000000 19.917805 0.000000
						}
					}
				}
			}
		}
	}
	JOINT mixamorig:RightUpLeg
	{
		OFFSET -18.162500 -13.585098 -0.041000
		CHANNELS 3 Xrotation Yrotation Zrotation
		JOINT mixamorig:RightLeg
		{
			OFFSET -0.595024 -80.945297 -3.631900
			CHANNELS 3 Xrotation Yrotation Zrotation
			JOINT mixamorig:RightFoot
			{
				OFFSET 0.595024 -83.218193 -6.561200
				CHANNELS 3 Xrotation Yrotation Zrotation
				JOINT mixamorig:RightToeBase
				{
					OFFSET -0.753601 -20.807106 25.115000
					CHANNELS 3 Xrotation Yrotation Zrotation
					JOINT mixamorig:RightToe_End
					{
						OFFSET 0.000299 0.001700 19.918200
						CHANNELS 3 Xrotation Yrotation Zrotation
						End Site
						{
							OFFSET 0.000000 19.918203 0.000000
						}
					}
				}
			}
		}
	}
}
MOTION
Frames: 5
Frame Time: 0.033333
0.340186 26.241699 -5.812790 -95.022439 1.360859 -2.709422 2.957804 -0.825223 -0.272438 3.190010 -0.579905 0.392430 3.195706 -0.542838 0.376708 -1.216853 -1.725828 8.446270 -0.918600 5.098705 -6.895216 0.000000 -0.000000 -0.000000 0.000000 -0.000000 -0.000000 0.000000 -0.000000 -0.000000 1.085476 -13.360059 -4.458441 -18.925590 -21.978929 -12.821466 0.000053 -123.613460 0.000044 4.017555 -14.951643 1.373102 2.486437 8.732148 -25.419655 3.183149 5.209282 -62.831996 1.786107 4.212008 -45.943927 0.000001 0.000000 -0.000000 0.699769 -6.020106 19.223948 19.074639 26.512441 -1.026353 3.271072 -0.981138 3.963667 0.000001 -0.000002 0.000001 0.460244 4.491392 -23.662349 2.316204 4.665556 -52.785068 1.524958 3.943276 -42.272632 0.000000 -0.000000 -0.000001 3.090059 8.505094 -34.940362 2.632813 4.889067 -56.585296 1.888447 4.308402 -47.321405 -0.000001 0.000001 -0.000000 3.603273 12.761700 -45.581278 1.989431 4.399086 -48.651519 0.930049 3.169116 -32.703841 0.000001 0.000000 -0.000000 -0.402515 13.039000 21.882341 -29.287069 52.464025 15.599384 0.000059 113.260130 -0.000062 10.533712 8.192668 -2.668622 -0.702538 -1.215803 21.259783 0.924219 -2.786674 36.691865 0.558031 -2.212350 28.309411 0.000003 -0.000002 0.000001 -13.495560 -11.552052 -5.371136 13.666546 -20.582674 -6.820329 3.162480 -4.141719 -22.215047 0.000006 0.000001 -0.000001 0.246051 -3.262786 18.902289 0.589426 -2.269648 29.112647 0.172149 -1.255807 15.610688 0.000004 0.000001 -0.000000 -0.941537 -2.664840 38.529237 0.358962 -1.794598 22.620046 0.313715 -1.682018 21.129373 0.000001 -0.000000 0.000003 -2.260391 -1.124640 39.408129 0.612393 -2.310403 29.687602 0.130083 -1.094184 13.559654 -0.000002 -0.000002 0.000001 -44.449413 3.972029 12.996680 87.321551 -9.790565 2.315623 46.121552 -3.627069 -4.822876 -1.217113 0.000001 0.000000 0.000000 -0.000000 0.000000 -42.547393 -2.692060 -2.022150 88.252560 -2.029777 0.432982 46.468833 -0.412363 -1.161908 -1.699882 0.000002 0.000001 -0.000001 -0.000000 -0.000000 
0.447258 26.328171 -5.433624 -95.008539 1.328488 -2.694677 2.923933 -0.838296 -0.291935 3.177751 -0.630128 0.357809 3.184103 -0.589506 0.342283 -0.126946 -1.688459 8.557794 -0.082374 5.172574 -6.854079 0.000000 -0.000000 0.000000 0.000000 -0.000000 0.000000 0.000000 -0.000000 0.000000 1.161037 -13.877562 -4.193442 -18.007681 -21.235869 -13.512726 0.000044 -122.853206 0.000029 2.028375 -17.115138 0.233038 2.380738 8.586367 -24.977715 3.049897 5.139012 -61.354654 1.721143 4.148304 -45.052454 0.000002 -0.000001 0.000001 0.850599 -5.283879 18.229468 18.756849 26.383808 0.317971 2.886759 -2.009526 5.499529 0.000004 -0.000001 -0.000002 0.446234 4.454365 -23.202117 2.213365 4.585887 -51.510012 1.462465 3.873557 -41.355675 -0.000001 -0.000001 -0.000001 2.964072 8.387860 -34.324002 2.520053 4.813029 -55.251804 1.818908 4.243413 -46.388948 0.000000 0.000001 -0.000001 3.392069 12.533423 -44.705921 1.904911 4.323454 -47.540039 0.896595 3.116501 -32.093881 0.000001 -0.000001 0.000001 -0.492957 14.285579 21.687621 -28.199534 50.934770 16.042769 0.000079 112.803969 -0.000080 10.159321 8.328742 -2.991837 -0.688349 -1.223862 21.056763 0.913142 -2.771741 36.463101 0.553250 -2.203453 28.185112 0.000004 -0.000000 0.000007 -13.319229 -11.639517 -5.214823 13.636626 -20.551259 -7.165742 3.176968 -3.719667 -22.535366 -0.000001 -0.000001 0.000003 0.242093 -3.251289 18.686908 0.582303 -2.256796 28.931954 0.171195 -1.252354 15.566618 0.000001 0.000000 -0.000002 -0.919863 -2.660820 38.179849 0.355770 -1.786958 22.518338 0.311785 -1.676968 21.062915 -0.000002 0.000001 -0.000002 -2.220027 -1.137147 39.057457 0.605054 -2.297505 29.505307 0.129693 -1.092559 13.539104 0.000000 0.000001 -0.000001 -44.571578 3.918767 13.024200 87.633902 -9.538981 2.271956 45.985847 -3.557980 -4.677559 -1.149567 -0.000001 -0.000001 -0.000001 -0.000000 -0.000000 -42.338000 -2.727683 -2.246808 88.093731 -1.805390 0.450802 47.500981 -0.293188 -0.917143 -1.725727 -0.000002 0.000000 0.000000 -0.000000 0.000000 
0.574531 26.257492 -5.005737 -94.869162 1.196573 -2.759219 2.890639 -0.809651 -0.325262 3.279019 -0.646722 0.310943 3.285785 -0.598591 0.295304 1.873061 -1.552872 8.471915 1.330835 5.192194 -6.607803 -0.000000 -0.000000 0.000000 -0.000000 -0.000000 0.000000 -0.000000 -0.000000 0.000000 1.316939 -15.463195 -4.039468 -15.764124 -19.430083 -14.357140 0.000002 -120.989179 0.000014 -1.033535 -19.253677 -0.040655 2.104965 8.186206 -23.776529 2.697686 4.931100 -57.343318 1.549022 3.969509 -42.621115 -0.000002 0.000000 0.000000 1.265642 -3.201810 15.558713 17.449492 26.001890 3.997650 2.005736 -5.053583 9.778083 -0.000001 0.000002 0.000001 0.409280 4.352918 -21.949112 1.943432 4.358315 -48.049237 1.297775 3.678453 -38.855245 0.000001 0.000000 -0.000000 2.633820 8.060865 -32.646716 2.223499 4.593883 -51.636254 1.634766 4.060489 -43.846072 -0.000001 -0.000000 -0.000000 2.851754 11.896972 -42.326522 1.683352 4.110345 -44.527817 0.808405 2.971415 -30.432939 0.000000 0.000000 0.000001 -0.740777 16.661801 21.855676 -26.177665 47.298650 16.870453 0.000135 111.536176 -0.000124 8.804885 9.079990 -3.251180 -0.674730 -1.204014 20.668403 0.905983 -2.762032 36.314746 0.550159 -2.197694 28.104809 0.000001 -0.000001 0.000002 -13.240048 -11.574299 -5.079768 13.617271 -20.530890 -7.388917 3.137442 -3.448856 -22.739187 0.000001 0.000001 0.000001 0.233168 -3.221934 18.267322 0.577692 -2.248485 28.815185 0.170547 -1.250117 15.538131 0.000002 0.000000 -0.000003 -0.907159 -2.635747 37.720843 0.353718 -1.781959 22.451954 0.310505 -1.673711 21.020085 0.000000 0.000001 0.000005 -2.205081 -1.131669 38.614526 0.600353 -2.289172 29.387528 0.129456 -1.091509 13.525836 -0.000001 -0.000000 0.000001 -45.139422 3.911982 13.138262 88.339590 -9.586513 2.175955 45.282368 -3.383982 -4.378549 -0.935044 0.000001 -0.000001 -0.000001 0.000000 0.000000 -42.551962 -2.678020 -2.409412 88.243066 -1.797245 0.496115 47.915532 -0.172688 -0.681074 -1.412549 -0.000002 -0.000001 -0.000000 0.000000 0.000000 
0.707633 26.105682 -4.557953 -94.622558 1.097310 -2.822692 2.910255 -0.720579 -0.365048 3.546174 -0.581227 0.274593 3.552275 -0.520656 0.257663 4.640860 -1.412417 8.016071 3.630795 4.591824 -6.050354 0.000000 0.000000 -0.000000 0.000000 0.000000 -0.000000 0.000000 0.000000 -0.000000 1.367607 -18.026794 -4.989154 -11.316410 -17.289369 -14.952206 0.000031 -117.140258 0.000041 -1.827985 -20.831566 2.796916 1.728116 7.584325 -22.004462 2.207002 4.580847 -51.430368 1.308061 3.691134 -39.015058 -0.000001 -0.000000 0.000000 1.906073 0.088635 11.694766 15.666357 25.114156 9.344826 1.520801 -10.336571 16.125984 0.000001 0.000001 0.000001 0.357802 4.201286 -20.095018 1.571840 3.994139 -42.950388 1.069574 3.376183 -35.147348 0.000000 0.000001 -0.000003 2.178995 7.556054 -30.167890 1.813606 4.238358 -46.317056 1.377049 3.774544 -40.075134 -0.000001 -0.000000 -0.000000 2.145549 10.917303 -38.817263 1.378643 3.776393 -40.098999 0.685639 2.752105 -27.974875 0.000001 0.000001 -0.000002 -1.192119 19.439516 22.845620 -22.610580 42.248951 18.219390 0.000025 108.326042 -0.000031 6.557051 10.162078 -3.436625 -0.657639 -1.164662 20.081449 0.899047 -2.752587 36.170616 0.547189 -2.192112 28.027068 0.000001 -0.000000 0.000001 -13.192799 -11.410917 -4.920939 13.598508 -20.511123 -7.605108 3.101066 -3.186378 -22.937601 -0.000003 0.000001 -0.000002 0.219731 -3.175528 17.632205 0.573264 -2.240412 28.702077 0.169956 -1.247955 15.510538 0.000001 0.000000 0.000001 -0.895667 -2.593252 37.083959 0.351699 -1.777096 22.387183 0.309331 -1.670564 20.978643 -0.000000 -0.000000 0.000001 -2.199577 -1.114909 38.006219 0.595796 -2.281086 29.273429 0.129200 -1.090485 13.512996 0.000000 0.000001 -0.000000 -45.983651 3.903896 13.169254 89.218226 -9.760640 2.068472 44.428939 -3.145689 -3.938505 -0.627486 -0.000001 -0.000002 -0.000000 -0.000000 0.000001 -43.163288 -2.687432 -2.658800 88.723010 -1.711139 0.555741 47.663915 -0.113834 -0.562397 -1.096839 0.000001 0.000001 -0.000000 -0.000000 0.000000 
0.835727 25.972748 -4.105713 -94.250450 0.996785 -2.824270 3.001438 -0.661516 -0.380795 4.000307 -0.598266 0.291219 4.007442 -0.520753 0.273201 7.991034 -1.215455 7.212216 7.213869 3.665723 -4.883720 -0.000002 0.000000 0.000000 -0.000002 0.000000 0.000000 -0.000002 0.000000 0.000000 1.154136 -20.502903 -6.984873 -5.657766 -15.729760 -16.453116 0.000075 -110.221303 0.000078 -0.637782 -22.504201 6.881010 1.318481 6.835991 -19.849025 1.663360 4.090001 -44.248476 1.037521 3.330291 -34.599478 -0.000000 0.000001 0.000001 2.756536 4.417587 7.126262 13.837376 23.590473 15.661130 2.688564 -17.505534 24.127978 -0.000002 -0.000001 -0.000001 0.300235 4.013851 -17.831416 1.166478 3.509531 -36.760806 0.817490 2.986823 -30.607983 0.000001 -0.000003 0.000005 1.679675 6.909299 -27.146367 1.363756 3.758700 -39.872489 1.087944 3.402095 -35.458288 -0.000001 -0.000002 0.000001 1.435702 9.672685 -34.549088 1.045557 3.341875 -34.737410 0.548673 2.477365 -24.973216 0.000002 -0.000000 0.000001 -1.899649 22.575346 24.617793 -18.113853 36.482369 20.693745 -0.000175 101.603961 0.000195 4.405524 11.256450 -5.180218 -0.636797 -1.107810 19.312370 0.892346 -2.743387 36.030679 0.544289 -2.186698 27.951823 0.000001 0.000001 -0.000004 -13.176138 -11.156736 -4.740245 13.580404 -20.491898 -7.814305 3.067636 -2.932235 -23.130574 -0.000002 -0.000001 0.000000 0.202769 -3.113395 16.800508 0.569007 -2.232598 28.592574 0.169392 -1.245856 15.483842 0.000001 0.000000 -0.000001 -0.884676 -2.534859 36.283041 0.349743 -1.772343 22.324028 0.308142 -1.667513 20.938609 -0.000000 -0.000000 -0.000001 -2.202507 -1.087341 37.244619 0.591422 -2.273237 29.162988 0.128966 -1.089508 13.500561 -0.000002 -0.000001 0.000001 -46.870742 3.845778 13.117659 89.981493 -9.568484 2.032357 43.997780 -3.027429 -3.706067 -0.453248 0.000001 -0.000005 -0.000000 -0.000000 -0.000001 -44.022581 -2.643921 -2.970619 89.333335 -1.425229 0.649386 47.318850 -0.012258 -0.355036 -0.924600 0.000001 0.000003 -0.000000 -0.000000 0.000000 
